<svg width="134" height="38" viewBox="0 0 134 38" fill="none" xmlns="http://www.w3.org/2000/svg">
<path d="M14.5822 10.9512H13.7372C11.0493 10.9512 8.41345 12.2205 6.95413 14.0999V11.0879H4.67578V26.1374H6.95413V16.8875C8.43945 14.6504 10.8706 13.048 13.7372 13.048H14.5822C18.9569 13.048 20.725 14.952 20.725 18.2129V26.1374H23.0294V18.0481C23.0294 13.3531 19.5484 10.9512 14.5822 10.9512Z" fill="#262626"/>
<path d="M34.7111 24.0371H33.099C28.8511 24.0371 27.0603 22.4346 27.0603 19.1772V18.0446C27.0603 14.7872 28.8511 13.048 33.099 13.048H35.4294C38.7055 13.048 40.8571 14.2647 40.8571 16.8034V17.715H28.2141L28.8803 19.8119H43.1355V17.4661C43.1355 12.771 40.4216 10.9512 35.2539 10.9512H33.1803C28.0093 10.9512 24.7852 13.3531 24.7852 18.0481V19.1807C24.7852 23.8758 28.0093 26.1374 33.1803 26.1374H34.7176C37.763 26.1374 40.8604 25.6395 43.3175 24.84L42.7032 22.7678C40.4249 23.5672 37.2755 24.0371 34.7176 24.0371H34.7111Z" fill="#262626"/>
<path d="M89.1011 7.44336H86.3125V10.2029H89.1011V7.44336Z" fill="#262626"/>
<path d="M80.7922 10.9498H74.0871V7.44336H71.8088V10.9498H67.8436L62.5718 23.4291L57.6316 10.9498H55.636L50.6991 23.4291L45.4273 10.9498H43.0742L49.5485 26.136H51.9016L56.6371 14.0705L61.3725 26.136H63.7256L69.3061 13.0501H71.8088V21.6899C71.8088 24.6703 72.7318 26.136 76.1867 26.136C78.3383 26.136 79.7944 25.9151 81.5104 25.4733L82.0207 23.2923C80.3339 23.8148 78.7706 24.0918 76.9537 24.0918C75.2409 24.0918 74.0871 23.5658 74.0871 22.2158V13.0501H86.8244V26.136H89.1028V10.9498H80.7922Z" fill="#262626"/>
<path d="M101.787 10.9512H100.942C98.2542 10.9512 95.3648 12.0557 94.0323 13.5459V10.9512H91.7539V30.5555H94.0323V23.3218C95.3648 24.8681 98.0234 26.1374 100.942 26.1374H101.787C106.75 26.1374 110.361 23.7355 110.361 19.0404V17.9079C110.361 13.2128 106.753 10.9512 101.787 10.9512ZM108.057 18.8756C108.057 22.354 106.035 24.0371 101.787 24.0371H100.942C98.0754 24.0371 95.4136 22.8484 94.0323 20.6674V16.1968C95.4656 14.2928 98.0754 13.048 100.942 13.048H101.787C106.162 13.048 108.057 14.8152 108.057 18.0727V18.8721V18.8756Z" fill="#262626"/>
<path d="M125.025 17.6854C122.721 17.4365 119.113 17.4365 117.401 17.2436C114.891 16.9666 114.02 16.4161 114.02 15.2835C114.02 13.7092 115.148 13.0465 119.906 13.0465H120.521C123.335 13.0465 126.075 13.4602 128.402 14.3999L129.017 12.3557C126.533 11.5001 123.439 10.9496 120.521 10.9496H119.906C114.661 10.9216 111.742 12.3312 111.742 15.3957C111.742 18.0185 113.507 19.067 117.144 19.3159C118.987 19.4527 122.568 19.4246 124.642 19.6736C126.511 19.8945 127.047 20.3363 127.047 21.6897C127.047 23.208 125.51 24.0355 121.418 24.0355H120.829C118.067 24.0355 114.355 23.3728 111.924 22.5453L111.258 24.5895C113.741 25.4451 117.631 26.1639 120.803 26.1359H121.418C126.946 26.1639 129.325 24.4773 129.325 21.4162C129.325 18.9583 127.84 17.994 125.025 17.6889V17.6854Z" fill="#262626"/>
</svg>
