<svg width="251" height="92" viewBox="0 0 251 92" fill="none" xmlns="http://www.w3.org/2000/svg">
<ellipse cx="126.043" cy="45.998" rx="123.738" ry="44.2421" fill="#F1F953"/>
<path d="M53.9454 52.9303C53.4818 52.819 53.2532 52.7666 52.7896 52.6488C49.1194 51.7517 45.1424 52.2886 42.5171 53.9387C42.9155 52.5178 43.1179 51.8107 43.5163 50.3898C42.282 50.0428 41.6616 49.866 40.4274 49.5059C38.3507 56.5709 37.3189 60.1001 35.2422 67.1651C36.5548 67.5579 37.2079 67.7478 38.5205 68.1276C39.7482 63.7668 40.3621 61.5864 41.5898 57.2256C44.3914 55.1696 48.2248 54.1809 52.1757 55.15C52.6393 55.2613 52.8744 55.3202 53.3381 55.4316C59.3657 56.8851 61.3379 59.6417 60.5086 63.5769C59.7053 67.4008 59.3004 69.3127 58.4972 73.1366C59.8425 73.4247 60.5151 73.5688 61.8604 73.8438C62.6375 69.9282 63.0293 67.9704 63.8064 64.0484C64.9362 58.3649 60.7175 54.5542 53.9389 52.9238L53.9454 52.9303Z" fill="#2E2E2E"/>
<path d="M79.369 74.2708C78.4286 74.1333 77.9584 74.0613 77.018 73.9173C70.8206 72.9678 68.5676 70.4863 69.2728 66.5183L69.521 65.1433C70.2263 61.1754 73.0932 59.5516 79.0163 60.4355C80.3159 60.6319 80.9689 60.7236 82.2685 60.9004C86.8463 61.529 89.6936 63.3492 89.341 66.4921C89.2887 66.9439 89.2691 67.1666 89.2169 67.6184C81.9942 66.7999 78.3959 66.2826 71.2189 65.032C71.4214 66.1189 71.5193 66.6689 71.7283 67.7559C79.8914 69.1636 83.9925 69.7267 92.2079 70.5714C92.3254 69.4059 92.3842 68.8231 92.4952 67.6576C93.0764 61.8367 89.5238 59.27 82.3664 58.2813C81.2171 58.1241 80.6424 58.039 79.4996 57.8753C72.3487 56.8212 67.366 58.8444 66.2819 64.5409C66.1774 65.0909 66.1252 65.3659 66.0207 65.9159C64.9366 71.6125 69.1292 75.3381 76.7372 76.5102C77.6384 76.6477 78.0955 76.7197 78.9967 76.8506C83.4831 77.5054 88.1328 77.453 91.8487 76.831C91.5875 75.7637 91.4569 75.2334 91.2022 74.1661C87.7802 74.8078 83.0978 74.8143 79.3559 74.2708H79.369Z" fill="#2E2E2E"/>
<path d="M153.29 58.364C154.832 58.1937 155.602 58.1086 157.144 57.9187C156.974 56.5239 156.889 55.8232 156.726 54.4219C155.204 54.6118 154.44 54.6969 152.918 54.8672C153.068 56.262 153.14 56.9626 153.29 58.364Z" fill="#2E2E2E"/>
<path d="M145.734 60.0328C142.005 60.334 140.144 60.4584 136.409 60.6417C136.324 58.8673 136.278 57.9834 136.194 56.209C134.946 56.2745 134.319 56.3007 133.072 56.353C133.137 58.1274 133.17 59.0113 133.242 60.7857C132.347 60.8185 131.897 60.8381 131.002 60.8643C129.761 60.9036 129.141 60.9167 127.893 60.9429C127.822 60.9429 127.789 60.9429 127.717 60.9429C124.903 67.2941 123.414 70.45 120.279 76.6964C117.419 70.3845 116.06 67.2155 113.494 60.8709C112.384 60.8381 111.822 60.8185 110.712 60.7792C107.715 66.9274 106.147 69.9786 102.856 76.0154C100.159 69.5726 98.8857 66.3446 96.5022 59.8822C95.1961 59.7643 94.5365 59.7054 93.2305 59.5744C96.0777 67.4643 97.6189 71.4059 100.936 79.2696C102.334 79.3743 103.032 79.4202 104.423 79.5118C107.578 73.6583 109.086 70.6988 111.966 64.747C114.428 70.8952 115.734 73.9595 118.47 80.0815C119.868 80.1077 120.566 80.1142 121.964 80.1208C125.281 73.5535 126.855 70.2339 129.82 63.5488C131.23 63.5095 131.929 63.4899 133.34 63.4375C133.503 67.8048 133.588 69.9851 133.751 74.3523C133.895 78.1172 135.331 79.9636 140.458 79.6886C143.645 79.5184 145.793 79.0863 148.275 78.3267C148.484 77.2005 148.588 76.6375 148.791 75.5047C146.374 76.369 144.102 76.8863 141.431 77.0369C138.91 77.1809 137.186 76.5851 137.101 74.8762C136.873 70.2405 136.762 67.9226 136.54 63.2935C140.308 63.1101 142.188 62.9923 145.95 62.6845C146.263 62.6584 146.427 62.6453 146.74 62.6191C149.809 62.3637 151.337 62.2131 154.4 61.8792C155.125 68.5054 155.491 71.8184 156.215 78.438C157.561 78.3005 158.233 78.222 159.579 78.0648C158.651 70.378 158.188 66.5345 157.267 58.8542C152.976 59.378 150.828 59.6006 146.524 59.9608C146.211 59.9869 146.054 60 145.741 60.0262L145.734 60.0328Z" fill="#2E2E2E"/>
<path d="M174.765 56.1812C174.301 56.2663 174.066 56.3121 173.603 56.3907C169.906 57.0586 166.138 59.0687 164.551 61.2229C164.362 59.9134 164.271 59.2521 164.081 57.9425C162.821 58.1259 162.194 58.2175 160.934 58.3878C162.253 68.3076 162.912 73.2642 164.238 83.184C165.609 83.0138 166.289 82.9221 167.66 82.7322C167.131 79.072 166.87 77.2452 166.341 73.585C168.561 75.2678 172.734 76.2958 177.018 75.5559C177.514 75.4708 177.763 75.4249 178.259 75.3398C185.54 74.0434 190.118 69.8266 188.799 63.9337C188.668 63.364 188.61 63.0825 188.479 62.5128C187.16 56.6199 181.596 54.9306 174.772 56.1877L174.765 56.1812ZM185.482 64.4313C186.409 68.8052 183.94 71.588 177.763 72.688C177.273 72.7731 177.025 72.819 176.535 72.9041C172.362 73.6309 168.235 72.7076 165.844 70.2326C165.518 67.9736 165.355 66.8409 165.028 64.5754C166.707 61.8777 170.089 59.7497 174.066 59.036C174.537 58.9509 174.772 58.9116 175.242 58.8265C181.315 57.7133 184.391 59.3241 185.266 63.423C185.351 63.8289 185.397 64.0254 185.482 64.4313Z" fill="#2E2E2E"/>
<path d="M208.89 56.8709C205.605 57.5191 200.577 58.9072 198.128 59.287C194.543 59.8501 193.152 59.4376 192.812 58.0167C192.335 56.0459 193.694 54.9066 200.198 53.119C200.531 53.0274 200.701 52.9815 201.04 52.8899C204.887 51.8226 208.746 51.2136 212.286 51.3642C212.299 50.2446 212.306 49.688 212.319 48.5684C208.635 48.5946 204.273 49.1708 200.322 50.2773C199.989 50.369 199.826 50.4148 199.493 50.5065C192.381 52.4315 188.796 55.0703 189.684 58.9138C190.442 62.2073 193.256 62.9668 198.441 61.9716C201.073 61.4674 206.102 60.0531 209.093 59.5031C211.79 59.0054 212.704 59.3066 213.226 60.9828C213.808 62.8686 211.953 64.6168 206.095 66.2407C205.755 66.3323 205.592 66.3782 205.253 66.4764C201.295 67.5633 195.744 68.0675 192.015 67.8318C191.872 68.9449 191.8 69.5014 191.65 70.6146C195.49 70.8765 201.367 70.3919 205.938 69.102C206.291 69.0038 206.474 68.958 206.826 68.8598C214.813 66.6859 217.536 63.4252 216.322 59.634C215.349 56.5959 212.913 56.0852 208.897 56.8774L208.89 56.8709Z" fill="#2E2E2E"/>
<path d="M52.0516 21.5449C51.5749 21.6693 51.3398 21.7282 50.8631 21.8592C47.0819 22.861 43.784 25.3884 42.3996 28.1319C41.9947 26.7634 41.7923 26.0759 41.3874 24.7009C40.1139 25.0807 39.4805 25.2771 38.207 25.6765C40.3033 32.5058 41.3482 35.9171 43.4445 42.7399C44.6395 42.3732 45.2403 42.1964 46.4419 41.8428C45.2012 37.6261 44.5808 35.5177 43.34 31.3075C44.6199 28.1581 47.4868 25.336 51.49 24.2818C51.9602 24.1574 52.1953 24.0985 52.672 23.9741C58.7911 22.3895 61.7755 24.0985 62.6244 27.9027C63.4473 31.6022 63.8587 33.4552 64.6881 37.1547C65.9158 36.8797 66.5297 36.7487 67.7639 36.4868C66.9607 32.6957 66.5623 30.8034 65.7656 27.0122C64.6032 21.5122 59.0588 19.7312 52.0647 21.5514L52.0516 21.5449Z" fill="#2E2E2E"/>
<path d="M83.0399 31.1371C82.1648 31.2746 81.7272 31.3401 80.8522 31.4841C75.0923 32.4139 72.3168 31.0389 71.5854 27.2019C71.4809 26.6715 71.4352 26.4031 71.3307 25.8662C70.5993 22.0292 72.7282 19.4297 78.7559 18.4279C80.075 18.2053 80.7346 18.1005 82.0603 17.8976C86.71 17.1773 89.9556 18.2642 90.3279 21.3089C90.3801 21.7476 90.4062 21.9637 90.4585 22.4024C83.3925 23.2929 79.8661 23.8495 72.8523 25.1721C73.4074 26.0953 73.6817 26.5537 74.2237 27.4769C82.0733 26.0298 86.0178 25.4406 93.9261 24.537C93.8021 23.4108 93.7368 22.8477 93.6127 21.7149C92.9858 16.0773 88.8324 14.2767 81.4334 15.4356C80.2448 15.619 79.6505 15.7172 78.4685 15.9136C71.076 17.1446 67.0729 20.9815 68.183 26.4882C68.2875 27.0186 68.3463 27.287 68.4508 27.8174C69.5675 33.3306 74.4066 35.0657 81.3615 33.9526C82.1844 33.8216 82.6023 33.7562 83.4252 33.6318C87.5198 33.0032 91.6144 31.877 94.8469 30.5412C94.4029 29.5853 94.1808 29.1073 93.7302 28.1513C90.7197 29.4739 86.5141 30.6002 83.0464 31.1371H83.0399Z" fill="#2E2E2E"/>
<path d="M155.145 12.0932C156.758 12.2373 157.561 12.3158 159.174 12.4796C159.318 11.1241 159.396 10.443 159.54 9.08752C157.907 8.92382 157.097 8.84524 155.465 8.70117C155.334 10.0567 155.269 10.7377 155.145 12.0932Z" fill="#2E2E2E"/>
<path d="M147.085 12.4063C143.213 12.1641 141.28 12.0724 137.401 11.9546C137.466 10.2325 137.492 9.3748 137.557 7.65279C136.225 7.6135 135.553 7.60041 134.221 7.57422C134.175 9.29623 134.155 10.154 134.109 11.8694C133.182 11.8498 132.712 11.8432 131.785 11.8301C130.498 11.8171 129.852 11.8105 128.565 11.8105C128.493 11.8105 128.454 11.8105 128.382 11.8105C125.294 17.9194 123.824 20.9837 121.042 27.1319C118.221 21.095 116.739 18.0962 113.63 12.1575C112.475 12.2099 111.9 12.2426 110.751 12.3081C108.21 18.5349 107.015 21.6581 104.762 27.9045C101.419 22.0837 99.6751 19.2027 96.0377 13.5129C94.6794 13.6569 94.0067 13.7355 92.6484 13.8926C97.187 20.748 99.3486 24.2378 103.443 31.2961C104.716 31.1914 105.356 31.1455 106.63 31.0539C108.791 25.0301 109.941 22.0182 112.363 16.0141C115.335 21.7432 116.758 24.6307 119.462 30.458C120.742 30.4253 121.375 30.4187 122.655 30.3991C125.6 23.9694 127.161 20.7611 130.452 14.3772C131.889 14.3903 132.608 14.4034 134.038 14.4295C133.927 18.6658 133.874 20.7807 133.763 25.017C133.672 28.6705 134.874 30.4646 139.556 30.6807C142.468 30.8182 144.46 30.6741 146.824 30.2943C147.177 29.2402 147.36 28.7164 147.719 27.6688C145.355 28.1402 143.206 28.3497 140.718 28.2253C138.374 28.1075 136.82 27.4134 136.885 25.7569C137.048 21.2587 137.133 19.0129 137.296 14.5147C141.136 14.6391 143.056 14.7242 146.896 14.973C147.216 14.9926 147.379 15.0057 147.699 15.0254C150.827 15.2349 152.394 15.3593 155.516 15.6474C154.889 22.0837 154.576 25.2985 153.949 31.7348C155.183 31.8527 155.797 31.9181 157.024 32.0556C157.834 24.5914 158.239 20.8593 159.042 13.395C154.582 12.9367 152.349 12.7468 147.875 12.4522C147.549 12.4325 147.386 12.4194 147.066 12.3998L147.085 12.4063Z" fill="#2E2E2E"/>
<path d="M177.285 15.8318C176.802 15.7533 176.56 15.714 176.077 15.6354C172.23 15.0199 167.881 15.8056 165.746 17.3967C165.915 16.1199 166 15.4848 166.164 14.208C164.851 14.0443 164.198 13.9592 162.885 13.8086C161.723 23.4468 161.135 28.2594 159.973 37.8977C161.181 38.0483 161.782 38.1268 162.983 38.2905C163.453 34.7351 163.688 32.9607 164.152 29.4053C165.719 31.5464 169.076 33.6089 172.988 34.2637C173.438 34.3423 173.667 34.375 174.124 34.4536C180.785 35.5929 186.212 33.7268 187.427 27.991C187.544 27.441 187.603 27.1594 187.721 26.6094C188.935 20.8736 184.384 17.0039 177.278 15.8318H177.285ZM184.305 27.1398C183.456 31.3958 180.322 32.8625 174.568 31.8803C174.111 31.8017 173.883 31.7625 173.425 31.6904C169.54 31.0422 166.144 29.0844 164.59 26.1511C164.877 23.951 165.027 22.8575 165.315 20.6575C167.639 18.5753 171.584 17.5539 175.652 18.2087C176.129 18.2872 176.371 18.3265 176.854 18.4051C183.064 19.4331 185.298 22.1766 184.501 26.1576C184.423 26.5505 184.384 26.7469 184.305 27.1398Z" fill="#2E2E2E"/>
<path d="M207.933 31.3268C204.877 30.1286 199.914 28.8256 197.615 28.0137C194.246 26.8285 193.181 25.8988 193.501 24.5172C193.939 22.5987 195.728 22.0749 202.389 23.7839C202.735 23.869 202.905 23.9148 203.251 24.0065C207.189 25.0279 210.872 26.6125 213.739 28.7143C214.379 27.8303 214.692 27.3917 215.339 26.5077C212.198 24.4255 208.031 22.5201 203.917 21.4594C203.571 21.3677 203.395 21.3219 203.049 21.2368C195.65 19.3052 191.117 20.2022 190.301 23.941C189.602 27.1428 191.777 28.9107 196.649 30.4363C199.117 31.2155 204.015 32.4727 206.732 33.5727C209.187 34.5614 209.749 35.3144 209.266 36.9513C208.724 38.7847 206.405 39.1317 200.946 37.6585C200.632 37.5734 200.476 37.5341 200.162 37.449C196.479 36.4668 191.705 34.4632 188.636 32.728C188.055 33.6447 187.767 34.1031 187.199 35.0263C190.308 36.7942 195.258 38.9026 199.463 39.9895C199.79 40.0746 199.953 40.1204 200.273 40.2056C207.568 42.2157 211.29 41.2401 212.42 37.5472C213.328 34.5876 211.675 32.787 207.94 31.3203L207.933 31.3268Z" fill="#2E2E2E"/>
<path fill-rule="evenodd" clip-rule="evenodd" d="M239.799 62.4217C245.886 57.1262 248.947 51.5708 248.947 46C248.947 40.4292 245.886 34.8738 239.799 29.5783C233.718 24.2872 224.804 19.4329 213.62 15.3171C191.266 7.09109 160.255 1.96428 125.906 1.96428C91.5572 1.96428 60.5461 7.09109 38.1929 15.3171C27.0085 19.4329 18.0948 24.2872 12.0134 29.5783C5.9269 34.8738 2.86535 40.4292 2.86535 46C2.86535 51.5708 5.9269 57.1262 12.0134 62.4217C18.0948 67.7128 27.0085 72.567 38.1929 76.6829C60.5461 84.9089 91.5572 90.0357 125.906 90.0357C160.255 90.0357 191.266 84.9089 213.62 76.6829C224.804 72.567 233.718 67.7128 239.799 62.4217ZM250.906 46C250.906 71.4051 194.942 92 125.906 92C56.8706 92 0.90625 71.4051 0.90625 46C0.90625 20.5949 56.8706 0 125.906 0C194.942 0 250.906 20.5949 250.906 46Z" fill="#F1F953"/>
</svg>
